# xmcd
#
# Track frame offsets:
#	183
#	9863
#	18075
#	30853
#	44385
#	56528
#	65003
#	79870
#	93823
#	106148
#	117660
#	132850
#	147650
#	161320
#	174448
#	188743
#	206640
#	220940
#	237315
#	248998
#
# Disc length: 3488 seconds
#
# Revision: 0
# Processed by: cddbd v1.5.2PL0 Copyright (c) Steve Scherf et al.
# Submitted via: dBpowerAMP V4.0
#
DISCID=080d9e14
DTITLE=Charley Pride - The Best Of Charley Pride
DYEAR=1994
DGENRE=Country
TTITLE0=Kiss an Angel Good Mornin'
TTITLE1=Wonder Could I Live There Anymore?
TTITLE2=Is Anybody Goin' to San Antone?
TTITLE3=Help Me Make It Through The Night
TTITLE4=I'm So Afraid Of Losing You Again
TTITLE5=There Goes My Everything
TTITLE6=Does My Ring Hurt Your Finger
TTITLE7=To Good To Be True
TTITLE8=White House
TTITLE9=Can't Stop The Mississippi
TTITLE10=You Put It There
TTITLE11=Sail Away
TTITLE12=Moody Woman
TTITLE13=Heaven Help Us All
TTITLE14=Amy's Eyes
TTITLE15=After Me, After You
TTITLE16=I Made Love To You In My Mind
TTITLE17=The More I Do
TTITLE18=Have I Got Some Blues For You
TTITLE19=Me and Booby McGee
EXTD=21 Louisiana Man\n22 Crystal Chandeliers
EXTT0=
EXTT1=
EXTT2=
EXTT3=
EXTT4=
EXTT5=
EXTT6=
EXTT7=
EXTT8=
EXTT9=
EXTT10=
EXTT11=
EXTT12=
EXTT13=
EXTT14=
EXTT15=
EXTT16=
EXTT17=
EXTT18=
EXTT19=
PLAYORDER=
